<svg id="visual" viewBox="0 0 900 600" width="900" height="600" xmlns="http://www.w3.org/2000/svg" xmlns:xlink="http://www.w3.org/1999/xlink" version="1.1"><rect width="900" height="600" fill="#ba2550"></rect><g><g transform="translate(735 512)"><path d="M89 -25.9C102.7 13.3 92.4 63.2 62 85.4C31.5 107.5 -19.2 101.9 -50.5 77.3C-81.8 52.7 -93.6 9.2 -82 -27.2C-70.3 -63.5 -35.2 -92.8 1.2 -93.2C37.6 -93.6 75.3 -65.1 89 -25.9Z" stroke="#ba5" fill="none" stroke-width="20"></path></g><g transform="translate(287 473)"><path d="M57.2 -20.1C65.1 5.6 56.1 35.3 36.2 49.7C16.2 64.2 -14.7 63.5 -34.3 48.9C-53.8 34.3 -62 5.7 -54.4 -19.6C-46.8 -44.9 -23.4 -67.1 0.6 -67.3C24.7 -67.5 49.4 -45.8 57.2 -20.1Z" stroke="#ba5" fill="none" stroke-width="20"></path></g><g transform="translate(3 338)"><path d="M57.4 -19.9C64.6 3.3 53.7 31.1 33.8 45.3C14 59.4 -14.9 59.9 -34.7 45.9C-54.5 32 -65.2 3.7 -57.9 -19.8C-50.6 -43.3 -25.3 -62 -0.1 -61.9C25.1 -61.9 50.3 -43.2 57.4 -19.9Z" stroke="#ba5" fill="none" stroke-width="20"></path></g><g transform="translate(680 48)"><path d="M49 -13.9C56.1 5.9 49.3 32.1 31.9 45.1C14.5 58 -13.5 57.5 -32.6 43.8C-51.8 30.2 -62.1 3.3 -55.2 -16.2C-48.3 -35.8 -24.2 -48 -1.6 -47.5C21 -46.9 41.9 -33.7 49 -13.9Z" stroke="#ba5" fill="none" stroke-width="20"></path></g></g></svg>